<?xml version="1.0" standalone="no"?>
<!DOCTYPE svg PUBLIC "-//W3C//DTD SVG 20010904//EN"
 "http://www.w3.org/TR/2001/REC-SVG-20010904/DTD/svg10.dtd">
<svg version="1.0" xmlns="http://www.w3.org/2000/svg"
 width="260.000000pt" height="260.000000pt" viewBox="0 0 260.000000 260.000000"
 preserveAspectRatio="xMidYMid meet">
<metadata>
Created by potrace 1.11, written by Peter Selinger 2001-2013
</metadata>
<g transform="translate(0.000000,260.000000) scale(0.100000,-0.100000)"
fill="#000000" stroke="none">
<path d="M12 2564 c-9 -10 -9 -18 1 -36 9 -19 12 -292 10 -1218 -1 -1372 0
-1270 -13 -1250 -7 12 -9 10 -7 -7 0 -12 5 -19 9 -17 4 3 8 1 8 -4 0 -5 356
-8 828 -8 455 1 839 -2 854 -6 15 -3 30 -2 34 3 8 14 26 0 18 -14 -5 -8 -3 -8
7 1 15 14 63 17 55 3 -3 -5 5 -8 19 -8 14 0 22 3 19 8 -3 5 0 9 5 9 6 0 11 -4
11 -8 0 -4 11 -9 26 -10 18 -1 23 2 18 11 -6 9 -4 9 7 1 21 -16 498 -17 518
-1 12 9 13 9 7 0 -5 -10 10 -13 64 -13 54 0 69 3 64 13 -6 8 -3 8 9 -2 15 -12
17 49 17 920 0 723 -3 936 -13 948 -9 12 -9 13 0 7 13 -7 12 29 -2 69 -4 13
-4 16 2 8 6 -8 9 1 9 27 0 24 -3 35 -8 28 -5 -10 -8 -8 -8 5 0 9 6 17 13 17 8
0 7 4 -3 10 -8 5 -10 10 -5 10 6 0 3 5 -5 10 -12 8 -12 10 5 10 15 0 17 2 6 9
-11 7 -14 49 -13 207 0 262 0 262 12 244 7 -12 9 -10 7 7 0 12 -4 21 -7 21 -3
0 -7 1 -10 2 -3 2 -579 4 -1280 5 -1018 1 -1278 -1 -1288 -11z"/>
</g>
</svg>
